<svg id="Layer_2" data-name="Layer 2" xmlns="http://www.w3.org/2000/svg" width="57.528" height="34.183" viewBox="0 0 57.528 34.183">
  <g id="Layer_8_copy_2" fill="#ED5A34" data-name="Layer 8 copy 2" transform="translate(0 0)">
    <path id="Path_1" data-name="Path 1" d="M56.156,10.437A17.386,17.386,0,0,0,40.128,0H17.389A17.394,17.394,0,0,0,1.3,10.545,16.866,16.866,0,0,0,5.085,29.177a17.476,17.476,0,0,0,12.3,5.006h22.74a17.482,17.482,0,0,0,14.485-7.656,16.838,16.838,0,0,0,1.521-16.091ZM40.15,31.489H17.389a14.526,14.526,0,0,1-14.656-14.4,14.53,14.53,0,0,1,14.656-14.4l22.74,0a14.526,14.526,0,0,1,14.656,14.4,14.53,14.53,0,0,1-14.656,14.4Z" transform="translate(0.022 0)" />
    <path id="Path_2" data-name="Path 2" d="M54.586,20.234v-.145a1.757,1.757,0,0,0-.091-.43c-.038-.145-.129-.43-.21-.639-.048-.124-.1-.242-.161-.36s-.118-.231-.183-.344a4.266,4.266,0,0,0-.322-.489h0q-.113-.145-.226-.274c-.086-.1-.172-.193-.263-.285l-.14-.134c-.091-.086-.193-.167-.29-.247a3.291,3.291,0,0,0-.312-.226,5.207,5.207,0,0,0-1.435-.693l-.2-.054h0a5.061,5.061,0,0,0-.747-.134h-8.4a8.791,8.791,0,0,1,3.326,2.574h4.573a3.128,3.128,0,0,1,.392.043h.107l.156.043.129.038h0a3.261,3.261,0,0,1,.317.129,2.315,2.315,0,0,1,.376.236l.161.129.07.064a2.842,2.842,0,0,1,.328.349,2.9,2.9,0,0,1,.253.4,2.542,2.542,0,0,1,.258,1.026v.446a2.37,2.37,0,0,1-.827,1.7A5.819,5.819,0,0,1,53.485,24.2a5.54,5.54,0,0,0,.629-.956,3.618,3.618,0,0,0,.172-.392,4.786,4.786,0,0,0,.253-.817,4.107,4.107,0,0,1,.07-.424,5.093,5.093,0,0,0,.038-.86C54.624,20.573,54.608,20.4,54.586,20.234Z" transform="translate(-19.443 -7.574)"/>
    <path id="Path_3" data-name="Path 3" d="M79.054,30.2h-.038L64.81,32.779H76.556a6.636,6.636,0,0,1-4.121,4.9,6.523,6.523,0,0,1-2.343.43,6.319,6.319,0,0,1-4.116-1.429A5.11,5.11,0,0,1,64.9,38.926a9.134,9.134,0,0,0,1.623.93l.387.156a9.081,9.081,0,0,0,12.24-8.517A10.343,10.343,0,0,0,79.054,30.2ZM70.221,40.554a10.091,10.091,0,0,0,2-.253c.274-.064.537-.14.8-.226A9.134,9.134,0,0,1,70.221,40.554Z" transform="translate(-30.3 -14.536)" />
    <path id="Path_4" data-name="Path 4" d="M34.449,23.123h-.038l-.15.031L20.178,25.586H31.924a6.41,6.41,0,0,1-4.143,4.669,6.81,6.81,0,0,1-2.343.41,6.453,6.453,0,0,1-6.426-6.3,6.453,6.453,0,0,1,6.426-6.3h.285A6.749,6.749,0,0,1,29.791,19.6a5.975,5.975,0,0,1,1.676,2.12l2.472-.435-.134-.307a9.368,9.368,0,0,0-8.382-5.268,9.324,9.324,0,0,0-2.074.23h-.064a8.423,8.423,0,0,0-2.767,1.126h0a8.784,8.784,0,0,0-1.488,1.147,8.584,8.584,0,0,0-1.531,1.94h0l-.161.307c-.081.159-.161.317-.231.481a8.157,8.157,0,0,0-.473,1.387,8.264,8.264,0,0,0,.473,5.345,8.9,8.9,0,0,0,4.836,4.608l.387.148a9.461,9.461,0,0,0,8.292-1.022,8.544,8.544,0,0,0,3.9-7.046,9.167,9.167,0,0,0-.07-1.219Zm-8.86,9.871a10.566,10.566,0,0,0,2-.241c.274-.061.537-.133.8-.215A9.544,9.544,0,0,1,25.589,32.994Z" transform="translate(-7.662 -7.269)"/>
    <path id="Path_5" data-name="Path 5" d="M78.625,21.548l-.124-.322a9.177,9.177,0,0,0-6.357-5.33A9.382,9.382,0,0,0,70.2,15.68a8.9,8.9,0,0,0-2.074.242h-.064A8.2,8.2,0,0,0,65.294,17.1h0l-.2.134a5.078,5.078,0,0,1,1.075,2.289,5.594,5.594,0,0,1,1.257-.779,6.593,6.593,0,0,1,2.778-.586h.22a6.561,6.561,0,0,1,4.068,1.612,6.174,6.174,0,0,1,1.666,2.2Z" transform="translate(-30.425 -7.506)" />
    <path id="Path_6" data-name="Path 6" d="M54.283,34.537a1.705,1.705,0,0,0-.091-.43.97.97,0,0,1,0-.1c-.054-.183-.113-.36-.183-.537a3.652,3.652,0,0,0-.161-.36c-.054-.118-.118-.236-.183-.349a4.729,4.729,0,0,0-.322-.484c-.075-.1-.156-.2-.242-.3s-.172-.188-.263-.279l-.14-.134-.226-.193-.064-.054-.312-.231a5.373,5.373,0,0,0-1.424-.666c-.129-.038-.253-.07-.382-.1l-.236-.048a5.686,5.686,0,0,0-.967-.081H46.658a15.013,15.013,0,0,1,0,2.574h2.4a3.579,3.579,0,0,1,.537.043H49.7l.2.054.167.054.231.1a2.284,2.284,0,0,1,.376.231l.161.129.07.07a2.5,2.5,0,0,1,.328.349l.129.183a2.477,2.477,0,0,1,.381,1.241v.446a2.268,2.268,0,0,1-.215.892,2.37,2.37,0,0,1-.919,1.053,2.343,2.343,0,0,1-1.23.344H44.5A7.775,7.775,0,0,1,41,40.56h8.049a5.507,5.507,0,0,0,1.4-.172,5.051,5.051,0,0,0,1.639-.742l.059-.038a5.514,5.514,0,0,0,.478-.382l.467-.473a3.071,3.071,0,0,0,.21-.253,5.261,5.261,0,0,0,.537-.822,4.143,4.143,0,0,0,.172-.392,5,5,0,0,0,.253-.822,3.416,3.416,0,0,1,.064-.387.07.07,0,0,0,0-.032,5.1,5.1,0,0,0,.038-.86A5.326,5.326,0,0,0,54.283,34.537Z" transform="translate(-19.16 -14.531)"/>
  </g>
</svg>
